HIERARCHY
ROOT Pelvis
{
	OFFSET 0.000000 0.000000 0.000000
	CHANNELS 6 Xposition Yposition Zposition Xrotation Yrotation Zrotation
	JOINT LeftUpLeg_virtual
	{
		OFFSET 0.000000 0.000000 0.000000
		CHANNELS 3 Xrotation Yrotation Zrotation
		JOINT LeftUpLeg
		{
			OFFSET 18.735201 -5.666702 -4.541200
			CHANNELS 3 Xrotation Yrotation Zrotation
			JOINT LeftLeg
			{
				OFFSET -0.021200 -31.938179 0.493100
				CHANNELS 3 Xrotation Yrotation Zrotation
				JOINT LeftFoot
				{
					OFFSET 0.021200 -31.938179 -4.336299
					CHANNELS 3 Xrotation Yrotation Zrotation
					JOINT LeftToeBase
					{
						OFFSET 0.943001 -26.722000 15.023500
						CHANNELS 3 Xrotation Yrotation Zrotation
						End Site
						{
							OFFSET 0 0 0
						}
					}
				}
			}
		}
	}
	JOINT RightUpLeg_virtual
	{
		OFFSET 0.000000 0.000000 0.000000
		CHANNELS 3 Xrotation Yrotation Zrotation
		JOINT RightUpLeg
		{
			OFFSET -18.735201 -5.666702 -4.541200
			CHANNELS 3 Xrotation Yrotation Zrotation
			JOINT RightLeg
			{
				OFFSET 0.018946 -31.938133 0.493100
				CHANNELS 3 Xrotation Yrotation Zrotation
				JOINT RightFoot
				{
					OFFSET -0.018946 -31.938126 -4.336299
					CHANNELS 3 Xrotation Yrotation Zrotation
					JOINT RightToeBase
					{
						OFFSET -0.943001 -26.722004 15.023500
						CHANNELS 3 Xrotation Yrotation Zrotation
						End Site
						{
							OFFSET 0 0 0
						}
					}
				}
			}
		}
	}
	JOINT Hips_virtual
	{
		OFFSET 0.000000 0.000000 0.000000
		CHANNELS 3 Xrotation Yrotation Zrotation
		JOINT Hips
		{
			OFFSET -0.000000 -0.000000 -0.000000
			CHANNELS 3 Xrotation Yrotation Zrotation
			JOINT Spine
			{
				OFFSET 0.000000 10.199997 -0.299500
				CHANNELS 3 Xrotation Yrotation Zrotation
				JOINT Spine1
				{
					OFFSET 0.000000 11.900002 -1.516600
					CHANNELS 3 Xrotation Yrotation Zrotation
					JOINT Spine2
					{
						OFFSET 0.000000 13.600006 -2.842500
						CHANNELS 3 Xrotation Yrotation Zrotation
						JOINT Neck_virtual
						{
							OFFSET 0.000000 0.000000 0.000000
							CHANNELS 3 Xrotation Yrotation Zrotation
							JOINT Neck
							{
								OFFSET 0.000000 9.624100 -2.890100
								CHANNELS 3 Xrotation Yrotation Zrotation
								JOINT Head
								{
									OFFSET 0.000000 14.068802 -1.351900
									CHANNELS 3 Xrotation Yrotation Zrotation
									End Site
									{
										OFFSET 0 0 0
									}
								}
							}
						}
						JOINT LeftShoulder_virtual
						{
							OFFSET 0.000000 0.000000 0.000000
							CHANNELS 3 Xrotation Yrotation Zrotation
							JOINT LeftShoulder
							{
								OFFSET 15.263000 10.923401 -0.547700
								CHANNELS 3 Xrotation Yrotation Zrotation
								JOINT LeftArm
								{
									OFFSET 25.438599 -2.830597 -13.032500
									CHANNELS 3 Xrotation Yrotation Zrotation
									JOINT LeftForeArm
									{
										OFFSET 29.960503 0.000000 0.000000
										CHANNELS 3 Xrotation Yrotation Zrotation
										JOINT LeftHand
										{
											OFFSET 27.849251 0.000000 0.000000
											CHANNELS 3 Xrotation Yrotation Zrotation
											End Site
											{
												OFFSET 0 0 0
											}
										}
									}
								}
							}
						}
						JOINT RightShoulder_virtual
						{
							OFFSET 0.000000 0.000000 0.000000
							CHANNELS 3 Xrotation Yrotation Zrotation
							JOINT RightShoulder
							{
								OFFSET -15.263000 10.923401 -0.547700
								CHANNELS 3 Xrotation Yrotation Zrotation
								JOINT RightArm
								{
									OFFSET -25.438599 -2.830597 -13.032500
									CHANNELS 3 Xrotation Yrotation Zrotation
									JOINT RightForeArm
									{
										OFFSET -29.960503 0.000000 0.000000
										CHANNELS 3 Xrotation Yrotation Zrotation
										JOINT RightHand
										{
											OFFSET -27.849251 0.000000 0.000000
											CHANNELS 3 Xrotation Yrotation Zrotation
											End Site
											{
												OFFSET 0 0 0
											}
										}
									}
								}
							}
						}
					}
				}
			}
		}
	}
}
MOTION
Frames: 6
Frame Time: 0.03333333
-4.513521 85.171219 11.656296 0.000000 0.000000 0.000000 -2.461158 -50.921751 -1.659070 -34.821073 0.402135 16.595022 34.159842 -10.194407 1.331283 -9.866263 -9.777294 -23.058471 0.000000 0.000000 0.000000 -2.439635 -50.347592 -1.463790 -15.545461 -2.580323 -23.585019 45.874887 7.682137 1.316819 -25.437014 3.368653 9.613023 0.000000 0.000000 0.000000 -1.685508 -50.302933 -0.946547 -0.779044 0.006033 -0.052357 4.740873 -3.154952 2.216199 14.606978 -3.905197 3.399075 0.000000 0.000000 0.000000 15.345529 0.513185 2.238476 -0.693414 -5.736687 0.813931 0.000000 0.000000 0.000000 16.959211 -0.536422 1.627054 -6.539033 -5.826243 -1.532209 -2.248762 9.673675 -65.485497 -3.402184 -60.132446 -9.037050 0.000000 0.000000 0.000000 13.608812 1.318745 2.070673 3.065482 0.518854 -1.336869 2.561970 -16.000838 78.307149 23.450065 71.279875 -15.475899 0.000000 0.000000 0.000000 
-4.527926 85.520645 11.515640 0.000000 0.000000 0.000000 -2.999628 -54.696469 -1.859889 -32.843149 1.533499 17.428887 34.087152 -9.762415 1.703143 -10.467717 -8.568384 -23.278379 0.000000 0.000000 0.000000 -2.926903 -54.157690 -1.635093 -17.365483 -1.388856 -24.411140 47.013684 7.866438 1.219352 -25.085830 3.703457 9.697313 0.000000 0.000000 0.000000 -2.137034 -54.100446 -1.041599 -0.766441 0.005267 -0.051372 4.482592 -3.583150 2.674738 15.228697 -5.084676 3.726250 0.000000 0.000000 0.000000 16.313215 -0.646925 2.504776 -0.866963 -5.841372 0.760632 0.000000 0.000000 0.000000 17.706891 -1.683766 1.879699 -6.656199 -7.185200 -1.068072 -1.423698 10.894546 -66.102660 -3.341082 -60.401999 -8.944572 0.000000 0.000000 0.000000 14.433228 0.155701 2.362228 3.134825 -1.615473 -0.911930 3.367727 -13.926321 77.902631 26.124557 72.261305 -17.568315 0.000000 0.000000 0.000000 
-4.548512 85.843063 11.379955 0.000000 0.000000 0.000000 -3.623662 -58.560526 -2.130931 -30.794427 2.855135 18.145455 33.833745 -9.179874 2.015105 -10.958570 -7.292194 -23.459589 0.000000 0.000000 0.000000 -3.494783 -58.050632 -1.867989 -19.032069 -0.228500 -25.090621 48.060319 7.955167 1.141561 -24.902853 3.845132 9.707844 0.000000 0.000000 0.000000 -2.665874 -58.008414 -1.210614 -0.755372 0.006704 -0.046750 4.227582 -3.867801 2.995988 15.755375 -6.123244 4.036284 0.000000 0.000000 0.000000 17.214821 -1.668607 2.723611 -1.076549 -5.933779 0.729615 0.000000 0.000000 0.000000 18.387175 -2.687761 2.090895 -6.787897 -8.431027 -0.477243 -0.734271 12.153711 -66.706298 -3.440069 -60.908424 -8.900278 0.000000 0.000000 0.000000 15.164398 -0.856193 2.644864 3.231373 -3.704549 -0.206830 4.595985 -12.431919 77.439838 29.217046 73.233363 -20.050213 0.000000 0.000000 0.000000 
-4.592488 86.141754 11.260002 0.000000 0.000000 0.000000 -4.383665 -62.507330 -2.540165 -28.702084 4.313927 18.733684 33.421683 -8.478170 2.272387 -11.368573 -5.986744 -23.574748 0.000000 0.000000 0.000000 -4.195713 -62.012975 -2.224041 -20.565252 0.845698 -25.618636 49.097029 7.905687 1.082841 -24.952988 3.760487 9.502007 0.000000 0.000000 0.000000 -3.306964 -61.985005 -1.502173 -0.747735 0.010980 -0.043255 3.983570 -3.985343 3.193341 16.165579 -7.008909 4.319962 0.000000 0.000000 0.000000 17.988364 -2.543218 2.904073 -1.319630 -6.017975 0.724715 0.000000 0.000000 0.000000 18.955950 -3.539820 2.264437 -6.924601 -9.529693 0.246252 -0.245598 13.360938 -67.247645 -3.654009 -61.402875 -8.867349 0.000000 0.000000 0.000000 15.778282 -1.710481 2.901836 3.366580 -5.678723 0.720279 6.019381 -11.591754 76.831842 32.758752 74.204241 -22.966409 0.000000 0.000000 0.000000 
-4.652816 86.398308 11.177544 0.000000 0.000000 0.000000 -5.387992 -66.512935 -3.209158 -26.597991 5.848288 19.178264 32.912544 -7.685074 2.485674 -11.623341 -4.697310 -23.618818 0.000000 0.000000 0.000000 -5.127913 -66.024645 -2.825054 -21.960539 1.832090 -25.999672 50.105807 7.772360 1.042043 -25.015607 3.529046 9.110240 0.000000 0.000000 0.000000 -4.138302 -65.985658 -2.006563 -0.739882 0.019328 -0.040357 3.765370 -3.926483 3.286563 16.464026 -7.738962 4.574152 0.000000 0.000000 0.000000 18.608739 -3.271923 3.060888 -1.583190 -6.105231 0.748916 0.000000 0.000000 0.000000 19.408869 -4.240178 2.407044 -7.052192 -10.480081 1.092596 0.039167 14.432910 -67.702208 -3.978393 -61.703697 -8.863109 0.000000 0.000000 0.000000 16.274360 -2.413921 3.120883 3.528297 -7.471108 1.742231 7.263524 -11.314853 75.967461 36.537175 75.043179 -26.117576 0.000000 0.000000 0.000000 
-4.710677 86.593681 11.150249 0.000000 0.000000 0.000000 -6.801373 -70.540691 -4.323679 -24.501198 7.401832 19.483740 32.347916 -6.840925 2.672118 -11.736971 -3.458894 -23.624176 0.000000 0.000000 0.000000 -6.446504 -70.049846 -3.851846 -23.232602 2.734394 -26.249609 50.998666 7.639386 0.998297 -24.815776 3.253338 8.657217 0.000000 0.000000 0.000000 -5.281580 -69.978949 -2.857191 -0.732821 0.024593 -0.037856 3.568037 -3.717968 3.313921 16.674138 -8.333650 4.804769 0.000000 0.000000 0.000000 19.091970 -3.866565 3.210293 -1.849593 -6.204149 0.800503 0.000000 0.000000 0.000000 19.762529 -4.798919 2.527878 -7.166882 -11.301581 2.018339 0.173630 15.264791 -68.070526 -4.391451 -61.788494 -8.899454 0.000000 0.000000 0.000000 16.679821 -2.980286 3.304754 3.713732 -9.067780 2.733790 8.133709 -11.404708 74.896849 39.975420 75.541127 -28.962403 0.000000 0.000000 0.000000 
